<?xml version="1.0" standalone="no"?>
<!DOCTYPE svg PUBLIC "-//W3C//DTD SVG 20010904//EN"
 "http://www.w3.org/TR/2001/REC-SVG-20010904/DTD/svg10.dtd">
<svg version="1.0" xmlns="http://www.w3.org/2000/svg"
 width="512.000000pt" height="512.000000pt" viewBox="0 0 512.000000 512.000000"
 preserveAspectRatio="xMidYMid meet">
<metadata>
Created by potrace 1.11, written by Peter Selinger 2001-2013
</metadata>
<g transform="translate(0.000000,512.000000) scale(0.100000,-0.100000)"
fill="#000000" stroke="none">
<path d="M2209 4337 c-63 -140 -82 -199 -109 -317 -18 -80 -47 -183 -66 -230
-19 -47 -35 -101 -36 -120 l-3 -35 575 0 575 0 -3 35 c-2 19 -19 70 -37 115
-18 44 -47 148 -65 230 -30 142 -37 159 -117 315 -47 91 -89 169 -93 173 -4 5
-15 -36 -24 -90 -40 -229 -44 -246 -64 -266 -19 -19 -26 -20 -96 -10 -54 8
-98 8 -153 0 -75 -10 -76 -10 -97 14 -15 17 -34 78 -61 192 -22 92 -42 167
-45 167 -3 0 -39 -78 -81 -173z m239 -423 c34 -23 27 -83 -10 -104 -25 -13
-31 -13 -55 0 -38 21 -45 81 -11 104 12 9 29 16 38 16 9 0 26 -7 38 -16z m352
-4 c11 -11 20 -31 20 -45 0 -29 -32 -65 -58 -65 -34 0 -62 29 -62 65 0 57 60
85 100 45z"/>
<path d="M1978 3443 c-3 -114 -3 -116 -28 -124 -14 -4 -331 -83 -705 -175
-374 -92 -681 -168 -682 -168 -6 -4 -44 -329 -40 -340 13 -34 282 -147 451
-190 80 -20 105 -32 157 -73 146 -113 179 -137 282 -199 95 -58 163 -93 317
-162 25 -11 83 -32 130 -47 l85 -28 34 -91 c19 -50 46 -116 62 -146 20 -39 33
-88 44 -169 29 -201 107 -378 242 -548 l73 -93 0 -85 c0 -54 -6 -99 -15 -122
-8 -20 -14 -38 -12 -40 2 -2 44 22 93 53 49 31 94 57 99 57 6 0 48 -23 94 -52
111 -70 117 -72 97 -33 -12 23 -16 59 -16 134 l1 103 64 80 c35 44 70 91 77
105 7 14 28 51 46 83 49 85 98 238 117 368 13 89 25 132 55 194 20 44 45 103
54 130 9 28 20 55 24 62 4 6 51 25 105 43 212 69 467 208 659 360 98 77 118
89 172 100 126 25 274 78 393 140 l88 45 3 65 c4 68 -17 290 -27 291 -3 0
-323 80 -711 177 l-705 177 3 65 c2 36 1 89 -3 118 l-6 52 -584 0 -584 0 -3
-117z m705 -133 c291 -42 539 -301 577 -603 28 -227 -74 -488 -243 -618 l-52
-40 -398 0 -397 1 -49 36 c-27 20 -74 69 -105 110 -280 363 -139 891 284 1069
123 51 243 65 383 45z"/>
<path d="M2097 2733 c-4 -6 0 -60 8 -119 15 -104 28 -144 40 -113 8 24 36 222
31 226 -13 13 -24 -13 -31 -69 l-8 -63 -10 55 c-11 70 -21 97 -30 83z"/>
<path d="M2216 2732 c-3 -3 -6 -58 -6 -123 0 -106 2 -117 18 -114 9 2 23 4 30
4 20 2 13 21 -8 21 -17 0 -20 7 -20 40 0 33 3 40 20 40 11 0 20 7 20 15 0 8
-9 15 -20 15 -17 0 -20 7 -20 40 0 33 3 40 20 40 18 0 30 19 13 21 -5 0 -16 2
-25 4 -9 2 -19 0 -22 -3z"/>
<path d="M2322 2718 c-20 -20 -14 -74 12 -105 14 -16 28 -41 31 -55 8 -33 -13
-48 -31 -23 -17 23 -28 14 -19 -14 4 -15 15 -21 35 -21 50 0 56 68 10 125 -16
21 -30 46 -30 56 0 27 21 35 36 14 17 -23 32 -11 18 13 -14 21 -45 27 -62 10z"/>
<path d="M2430 2611 c0 -74 4 -121 10 -121 6 0 10 24 10 53 0 45 3 54 23 62
19 9 22 18 22 65 0 55 0 55 -32 58 l-33 3 0 -120z m50 59 c0 -29 -4 -40 -15
-40 -11 0 -15 11 -15 40 0 29 4 40 15 40 11 0 15 -11 15 -40z"/>
<path d="M2540 2610 l0 -120 30 0 c20 0 30 5 30 15 0 8 -9 15 -20 15 -17 0
-20 7 -20 40 0 33 3 40 20 40 11 0 20 5 20 10 0 6 -9 10 -20 10 -17 0 -20 7
-20 45 0 38 3 45 20 45 11 0 20 5 20 10 0 6 -13 10 -30 10 l-30 0 0 -120z"/>
<path d="M2640 2610 c0 -73 4 -120 10 -120 6 0 10 25 10 55 0 41 4 55 14 55
11 0 16 -15 18 -52 2 -29 8 -53 13 -53 14 0 16 206 3 223 -6 6 -23 12 -39 12
l-29 0 0 -120z m48 58 c-2 -24 -7 -43 -13 -43 -5 0 -11 19 -13 43 -3 33 0 42
13 42 13 0 16 -9 13 -42z"/>
<path d="M2740 2720 c0 -5 7 -10 15 -10 12 0 15 -19 15 -110 0 -67 4 -110 10
-110 6 0 10 43 10 110 0 67 4 110 10 110 6 0 10 5 10 10 0 6 -16 10 -35 10
-19 0 -35 -4 -35 -10z"/>
<path d="M2846 2714 c-3 -9 -6 -58 -6 -109 0 -87 2 -95 22 -106 18 -10 24 -8
40 11 14 17 18 40 18 102 0 44 -5 88 -10 99 -13 23 -55 25 -64 3z m44 -100 c0
-72 -3 -95 -12 -92 -9 3 -14 31 -16 83 -3 82 1 105 18 105 6 0 10 -37 10 -96z"/>
<path d="M2960 2610 c0 -73 4 -120 10 -120 6 0 10 24 11 53 1 53 8 46 23 -25
4 -16 11 -28 16 -28 6 0 10 48 10 120 0 73 -4 120 -10 120 -5 0 -10 -24 -11
-52 -1 -57 -2 -56 -19 10 -19 75 -30 47 -30 -78z"/>
</g>
</svg>
